<mxfile host="app.diagrams.net" modified="2023-09-18T13:50:24.601Z" agent="Mozilla/5.0 (Windows NT 10.0; Win64; x64) AppleWebKit/537.36 (KHTML, like Gecko) Chrome/116.0.0.0 Safari/537.36" etag="VUTWbVk5Om_s6btSjRei" version="21.6.6" type="device">
  <diagram name="Page-1" id="iVjG18zbs-vaC5qrpZfu">
    <mxGraphModel dx="1114" dy="602" grid="1" gridSize="10" guides="1" tooltips="1" connect="1" arrows="1" fold="1" page="1" pageScale="1" pageWidth="850" pageHeight="1100" math="0" shadow="0">
      <root>
        <mxCell id="0" />
        <mxCell id="1" parent="0" />
        <mxCell id="4_eAeozk1D-hvGfwN06K-1" value="Geek" style="shape=umlActor;verticalLabelPosition=bottom;verticalAlign=top;html=1;outlineConnect=0;" vertex="1" parent="1">
          <mxGeometry x="60" y="190" width="30" height="60" as="geometry" />
        </mxCell>
        <mxCell id="4_eAeozk1D-hvGfwN06K-9" value="" style="swimlane;startSize=0;" vertex="1" parent="1">
          <mxGeometry x="203" y="50" width="307" height="500" as="geometry">
            <mxRectangle x="203" y="50" width="50" height="40" as="alternateBounds" />
          </mxGeometry>
        </mxCell>
        <mxCell id="4_eAeozk1D-hvGfwN06K-6" value="&lt;h1&gt;GeeK Management&lt;/h1&gt;&lt;p&gt;&lt;br&gt;&lt;/p&gt;" style="text;html=1;strokeColor=none;fillColor=none;spacing=5;spacingTop=-20;whiteSpace=wrap;overflow=hidden;rounded=0;" vertex="1" parent="4_eAeozk1D-hvGfwN06K-9">
          <mxGeometry x="37" y="10" width="245" height="40" as="geometry" />
        </mxCell>
        <mxCell id="4_eAeozk1D-hvGfwN06K-3" value="Create Account" style="ellipse;whiteSpace=wrap;html=1;" vertex="1" parent="4_eAeozk1D-hvGfwN06K-9">
          <mxGeometry x="87" y="70" width="120" height="80" as="geometry" />
        </mxCell>
        <mxCell id="4_eAeozk1D-hvGfwN06K-4" value="Login" style="ellipse;whiteSpace=wrap;html=1;" vertex="1" parent="4_eAeozk1D-hvGfwN06K-9">
          <mxGeometry x="87" y="200" width="120" height="80" as="geometry" />
        </mxCell>
        <mxCell id="4_eAeozk1D-hvGfwN06K-5" value="Search other Users" style="ellipse;whiteSpace=wrap;html=1;" vertex="1" parent="4_eAeozk1D-hvGfwN06K-9">
          <mxGeometry x="87" y="330" width="120" height="80" as="geometry" />
        </mxCell>
        <mxCell id="4_eAeozk1D-hvGfwN06K-11" value="" style="endArrow=none;html=1;rounded=0;exitX=0.5;exitY=0.5;exitDx=0;exitDy=0;exitPerimeter=0;" edge="1" parent="1" source="4_eAeozk1D-hvGfwN06K-1" target="4_eAeozk1D-hvGfwN06K-3">
          <mxGeometry width="50" height="50" relative="1" as="geometry">
            <mxPoint x="150" y="190" as="sourcePoint" />
            <mxPoint x="200" y="140" as="targetPoint" />
          </mxGeometry>
        </mxCell>
        <mxCell id="4_eAeozk1D-hvGfwN06K-13" value="" style="endArrow=none;html=1;rounded=0;exitX=0.5;exitY=0.5;exitDx=0;exitDy=0;exitPerimeter=0;entryX=0.025;entryY=0.613;entryDx=0;entryDy=0;entryPerimeter=0;" edge="1" parent="1" source="4_eAeozk1D-hvGfwN06K-1" target="4_eAeozk1D-hvGfwN06K-4">
          <mxGeometry width="50" height="50" relative="1" as="geometry">
            <mxPoint x="90" y="360" as="sourcePoint" />
            <mxPoint x="140" y="310" as="targetPoint" />
          </mxGeometry>
        </mxCell>
        <mxCell id="4_eAeozk1D-hvGfwN06K-14" value="" style="endArrow=none;html=1;rounded=0;exitX=0.5;exitY=0.5;exitDx=0;exitDy=0;exitPerimeter=0;" edge="1" parent="1" source="4_eAeozk1D-hvGfwN06K-1" target="4_eAeozk1D-hvGfwN06K-5">
          <mxGeometry width="50" height="50" relative="1" as="geometry">
            <mxPoint x="100" y="410" as="sourcePoint" />
            <mxPoint x="150" y="360" as="targetPoint" />
          </mxGeometry>
        </mxCell>
        <mxCell id="4_eAeozk1D-hvGfwN06K-15" value="Actor" style="shape=umlActor;verticalLabelPosition=bottom;verticalAlign=top;html=1;outlineConnect=0;" vertex="1" parent="1">
          <mxGeometry x="710" y="220" width="30" height="60" as="geometry" />
        </mxCell>
        <mxCell id="4_eAeozk1D-hvGfwN06K-16" value="" style="swimlane;startSize=0;" vertex="1" parent="1">
          <mxGeometry x="870" y="50" width="310" height="490" as="geometry" />
        </mxCell>
        <mxCell id="4_eAeozk1D-hvGfwN06K-17" value="Chat with others" style="ellipse;whiteSpace=wrap;html=1;" vertex="1" parent="4_eAeozk1D-hvGfwN06K-16">
          <mxGeometry x="95" y="70" width="120" height="80" as="geometry" />
        </mxCell>
        <mxCell id="4_eAeozk1D-hvGfwN06K-18" value="Change Profile Picture" style="ellipse;whiteSpace=wrap;html=1;" vertex="1" parent="4_eAeozk1D-hvGfwN06K-16">
          <mxGeometry x="95" y="190" width="120" height="80" as="geometry" />
        </mxCell>
        <mxCell id="4_eAeozk1D-hvGfwN06K-19" value="" style="ellipse;whiteSpace=wrap;html=1;" vertex="1" parent="4_eAeozk1D-hvGfwN06K-16">
          <mxGeometry x="95" y="320" width="120" height="80" as="geometry" />
        </mxCell>
        <mxCell id="4_eAeozk1D-hvGfwN06K-23" value="" style="endArrow=none;html=1;rounded=0;entryX=0;entryY=0.5;entryDx=0;entryDy=0;exitX=0.5;exitY=0.5;exitDx=0;exitDy=0;exitPerimeter=0;" edge="1" parent="1" source="4_eAeozk1D-hvGfwN06K-15" target="4_eAeozk1D-hvGfwN06K-17">
          <mxGeometry width="50" height="50" relative="1" as="geometry">
            <mxPoint x="740" y="270" as="sourcePoint" />
            <mxPoint x="790" y="220" as="targetPoint" />
          </mxGeometry>
        </mxCell>
        <mxCell id="4_eAeozk1D-hvGfwN06K-24" value="" style="endArrow=none;html=1;rounded=0;exitX=0.5;exitY=0.5;exitDx=0;exitDy=0;exitPerimeter=0;" edge="1" parent="1" source="4_eAeozk1D-hvGfwN06K-15" target="4_eAeozk1D-hvGfwN06K-18">
          <mxGeometry width="50" height="50" relative="1" as="geometry">
            <mxPoint x="700" y="420" as="sourcePoint" />
            <mxPoint x="750" y="370" as="targetPoint" />
          </mxGeometry>
        </mxCell>
        <mxCell id="4_eAeozk1D-hvGfwN06K-26" value="" style="endArrow=none;html=1;rounded=0;exitX=0;exitY=0.5;exitDx=0;exitDy=0;" edge="1" parent="1" source="4_eAeozk1D-hvGfwN06K-19">
          <mxGeometry width="50" height="50" relative="1" as="geometry">
            <mxPoint x="670" y="420" as="sourcePoint" />
            <mxPoint x="730" y="250" as="targetPoint" />
          </mxGeometry>
        </mxCell>
        <mxCell id="4_eAeozk1D-hvGfwN06K-27" value="" style="swimlane;startSize=0;" vertex="1" parent="1">
          <mxGeometry x="1530" y="50" width="300" height="500" as="geometry" />
        </mxCell>
        <mxCell id="4_eAeozk1D-hvGfwN06K-28" value="" style="ellipse;whiteSpace=wrap;html=1;" vertex="1" parent="4_eAeozk1D-hvGfwN06K-27">
          <mxGeometry x="100" y="70" width="120" height="80" as="geometry" />
        </mxCell>
        <mxCell id="4_eAeozk1D-hvGfwN06K-29" value="" style="ellipse;whiteSpace=wrap;html=1;" vertex="1" parent="4_eAeozk1D-hvGfwN06K-27">
          <mxGeometry x="100" y="190" width="120" height="80" as="geometry" />
        </mxCell>
        <mxCell id="4_eAeozk1D-hvGfwN06K-30" value="" style="ellipse;whiteSpace=wrap;html=1;" vertex="1" parent="4_eAeozk1D-hvGfwN06K-27">
          <mxGeometry x="100" y="320" width="120" height="80" as="geometry" />
        </mxCell>
        <mxCell id="4_eAeozk1D-hvGfwN06K-31" value="Actor" style="shape=umlActor;verticalLabelPosition=bottom;verticalAlign=top;html=1;outlineConnect=0;" vertex="1" parent="1">
          <mxGeometry x="1400" y="250" width="30" height="60" as="geometry" />
        </mxCell>
      </root>
    </mxGraphModel>
  </diagram>
</mxfile>
